<svg width="25" height="24" viewBox="0 0 25 24" fill="none" xmlns="http://www.w3.org/2000/svg">
<mask id="mask0_2172_7971" style="mask-type:alpha" maskUnits="userSpaceOnUse" x="0" y="0" width="25" height="24">
<rect x="0.5" width="24" height="24" fill="#D9D9D9"/>
</mask>
<g mask="url(#mask0_2172_7971)">
<path d="M6.80775 21.5C6.30258 21.5 5.875 21.325 5.525 20.975C5.175 20.625 5 20.1974 5 19.6923V8.30775C5 7.80258 5.175 7.375 5.525 7.025C5.875 6.675 6.30258 6.5 6.80775 6.5H8.75V6.25C8.75 5.21417 9.116 4.33017 9.848 3.598C10.5802 2.866 11.4642 2.5 12.5 2.5C13.5358 2.5 14.4198 2.866 15.152 3.598C15.884 4.33017 16.25 5.21417 16.25 6.25V6.5H18.1923C18.6974 6.5 19.125 6.675 19.475 7.025C19.825 7.375 20 7.80258 20 8.30775V19.6923C20 20.1974 19.825 20.625 19.475 20.975C19.125 21.325 18.6974 21.5 18.1923 21.5H6.80775ZM6.80775 20H18.1923C18.2692 20 18.3398 19.9679 18.4038 19.9038C18.4679 19.8398 18.5 19.7693 18.5 19.6923V8.30775C18.5 8.23075 18.4679 8.16025 18.4038 8.09625C18.3398 8.03208 18.2692 8 18.1923 8H16.25V10.25C16.25 10.4628 16.1782 10.641 16.0345 10.7845C15.891 10.9282 15.7128 11 15.5 11C15.2872 11 15.109 10.9282 14.9655 10.7845C14.8218 10.641 14.75 10.4628 14.75 10.25V8H10.25V10.25C10.25 10.4628 10.1782 10.641 10.0345 10.7845C9.891 10.9282 9.71283 11 9.5 11C9.28717 11 9.109 10.9282 8.9655 10.7845C8.82183 10.641 8.75 10.4628 8.75 10.25V8H6.80775C6.73075 8 6.66025 8.03208 6.59625 8.09625C6.53208 8.16025 6.5 8.23075 6.5 8.30775V19.6923C6.5 19.7693 6.53208 19.8398 6.59625 19.9038C6.66025 19.9679 6.73075 20 6.80775 20ZM10.25 6.5H14.75V6.25C14.75 5.62317 14.5317 5.09142 14.0953 4.65475C13.6588 4.21825 13.127 4 12.5 4C11.873 4 11.3413 4.21825 10.9048 4.65475C10.4683 5.09142 10.25 5.62317 10.25 6.25V6.5Z" fill="#1C1B1F"/>
</g>
</svg>
