<svg width="34" height="27" viewBox="0 0 34 27" fill="none" xmlns="http://www.w3.org/2000/svg">
<path fill-rule="evenodd" clip-rule="evenodd" d="M4.25 0C1.90278 0 0 1.90867 0 4.26316V18.4737C0 20.8281 1.90278 22.7368 4.25 22.7368H4.42853C5.05758 25.1884 7.27623 27 9.91667 27C12.5571 27 14.7757 25.1884 15.4048 22.7368H18.5952C19.2243 25.1884 21.4429 27 24.0833 27C26.7237 27 28.9425 25.1884 29.5715 22.7368H29.75C32.0971 22.7368 34 20.8281 34 18.4737V13.9667C34 12.8361 33.5523 11.7517 32.7553 10.9522L23.0815 1.24865C22.2846 0.449167 21.2036 0 20.0764 0H4.25ZM18.5952 19.8947H15.4048C14.7757 17.4431 12.5571 15.6316 9.91667 15.6316C7.27623 15.6316 5.05758 17.4431 4.42853 19.8947H4.25C3.4676 19.8947 2.83333 19.2584 2.83333 18.4737V4.26316C2.83333 3.47834 3.4676 2.84211 4.25 2.84211H20.0764C20.4521 2.84211 20.8124 2.99183 21.0781 3.25833L30.7519 12.9619C31.0173 13.2284 31.1667 13.5898 31.1667 13.9667V18.4737C31.1667 19.2584 30.5323 19.8947 29.75 19.8947H29.5715C28.9425 17.4431 26.7237 15.6316 24.0833 15.6316C21.4429 15.6316 19.2243 17.4431 18.5952 19.8947ZM21.25 21.3158C21.25 22.8855 22.5185 24.1579 24.0833 24.1579C25.6482 24.1579 26.9167 22.8855 26.9167 21.3158C26.9167 19.7461 25.6482 18.4737 24.0833 18.4737C22.5185 18.4737 21.25 19.7461 21.25 21.3158ZM12.75 21.3158C12.75 19.7461 11.4815 18.4737 9.91667 18.4737C8.35187 18.4737 7.08333 19.7461 7.08333 21.3158C7.08333 22.8855 8.35187 24.1579 9.91667 24.1579C11.4815 24.1579 12.75 22.8855 12.75 21.3158Z" fill="black"/>
</svg>
