<svg width="18" height="14" viewBox="0 0 18 14" fill="none" xmlns="http://www.w3.org/2000/svg">
<g clip-path="url(#clip0_1841_767)">
<path d="M1 1H17V13.0001H1V1Z" fill="white"/>
<path d="M10 0.999939H8V5.87492H1V8.12492H8V12.9999H10V8.12492H17V5.87492H10V0.999939Z" fill="#D80027"/>
<path d="M13.3059 9.08682L17.0001 11.3957V9.08682H13.3059ZM10.7393 9.08682L17.0001 12.9999V11.8933L12.5097 9.08682H10.7393ZM15.3324 12.9999L10.7393 10.1289V12.9999H15.3324Z" fill="#0052B4"/>
<path d="M10.7393 9.08682L17.0001 12.9999V11.8933L12.5097 9.08682H10.7393Z" fill="white"/>
<path d="M10.7393 9.08682L17.0001 12.9999V11.8933L12.5097 9.08682H10.7393Z" fill="#D80027"/>
<path d="M3.82316 9.08676L1 10.8513V9.08676H3.82316ZM7.26088 9.58436V12.9998H1.79659L7.26088 9.58436Z" fill="#0052B4"/>
<path d="M5.49041 9.08682L1 11.8933V12.9999L7.26088 9.08682H5.49041Z" fill="#D80027"/>
<path d="M4.69422 4.91297L1 2.60405V4.91297H4.69422ZM7.26088 4.91297L1 0.999939V2.10645L5.49041 4.91297H7.26088ZM2.66769 0.999939L7.26088 3.87094V0.999939H2.66769Z" fill="#0052B4"/>
<path d="M7.26088 4.91297L1 0.999939V2.10645L5.49041 4.91297H7.26088Z" fill="white"/>
<path d="M7.26088 4.91297L1 0.999939V2.10645L5.49041 4.91297H7.26088Z" fill="#D80027"/>
<path d="M14.177 4.91301L17.0001 3.14852V4.91301H14.177ZM10.7393 4.41541V0.999939H16.2035L10.7393 4.41541Z" fill="#0052B4"/>
<path d="M12.5097 4.91294L17.0001 2.10642V0.999908L10.7393 4.91294H12.5097Z" fill="#D80027"/>
</g>
<rect x="0.5" y="0.5" width="17" height="13" rx="2.5" stroke="#EEEEEE"/>
<defs>
<clipPath id="clip0_1841_767">
<rect x="1" y="1" width="16" height="12" rx="2" fill="white"/>
</clipPath>
</defs>
</svg>
