<svg width="19" height="19" viewBox="0 0 19 19" fill="none" xmlns="http://www.w3.org/2000/svg">
<g clip-path="url(#clip0_223_18384)">
<path d="M10.724 18.8588H7.69206C7.18564 18.8588 6.77368 18.4477 6.77368 17.9423V11.117H5.00481C4.49838 11.117 4.08643 10.7057 4.08643 10.2004V7.27579C4.08643 6.77036 4.49838 6.35921 5.00481 6.35921H6.77368V4.89466C6.77368 3.4425 7.23056 2.20703 8.09477 1.32201C8.96289 0.432961 10.1761 -0.0368652 11.6032 -0.0368652L13.9155 -0.033117C14.421 -0.032252 14.8323 0.3789 14.8323 0.88347V3.59892C14.8323 4.10436 14.4204 4.51551 13.9142 4.51551L12.3573 4.51608C11.8826 4.51608 11.7617 4.61109 11.7358 4.64021C11.6932 4.6885 11.6425 4.82503 11.6425 5.20201V6.35906H13.7972C13.9594 6.35906 14.1165 6.39899 14.2516 6.47425C14.5429 6.63672 14.7241 6.94393 14.7241 7.27594L14.7229 10.2006C14.7229 10.7057 14.311 11.1169 13.8045 11.1169H11.6425V17.9423C11.6425 18.4477 11.2304 18.8588 10.724 18.8588ZM7.88359 17.7511H10.5324V10.6211C10.5324 10.2836 10.8076 10.0091 11.1456 10.0091H13.613L13.614 7.46695H11.1454C10.8074 7.46695 10.5324 7.19247 10.5324 6.85498V5.20201C10.5324 4.76923 10.5765 4.27706 10.9038 3.90714C11.2993 3.45995 11.9226 3.40834 12.3571 3.40834L13.7223 3.40776V1.07434L11.6023 1.07088C9.30883 1.07088 7.88359 2.53615 7.88359 4.89466V6.85498C7.88359 7.19232 7.60857 7.46695 7.27057 7.46695H5.19634V10.0091H7.27057C7.60857 10.0091 7.88359 10.2836 7.88359 10.6211V17.7511ZM13.9133 1.07463H13.9134H13.9133Z" fill="#737373"/>
</g>
<defs>
<clipPath id="clip0_223_18384">
<rect width="18.8957" height="18.8957" fill="white"/>
</clipPath>
</defs>
</svg>
