
<svg width="24" height="24" viewBox="0 0 24 24" fill="none" xmlns="http://www.w3.org/2000/svg">
<mask id="mask0_2150_21752" style="mask-type:alpha" maskUnits="userSpaceOnUse" x="0" y="0" width="24" height="24">
<rect width="24" height="24" fill="#D9D9D9"/>
</mask>
<g mask="url(#mask0_2150_21752)">
<path d="M17.6538 19.6537C16.7169 19.6537 15.925 19.3303 15.278 18.6834C14.6312 18.0364 14.3077 17.2445 14.3077 16.3077C14.3077 15.3707 14.6312 14.5788 15.278 13.9319C15.925 13.2849 16.7169 12.9614 17.6538 12.9614C18.5908 12.9614 19.3827 13.2849 20.0295 13.9319C20.6765 14.5788 21 15.3707 21 16.3077C21 17.2445 20.6765 18.0364 20.0295 18.6834C19.3827 19.3303 18.5908 19.6537 17.6538 19.6537ZM17.6528 18.1537C18.1624 18.1537 18.5977 17.9736 18.9587 17.6134C19.3196 17.2531 19.5 16.8182 19.5 16.3087C19.5 15.799 19.3198 15.3637 18.9595 15.0027C18.5993 14.6419 18.1644 14.4614 17.6547 14.4614C17.1451 14.4614 16.7098 14.6416 16.349 15.0019C15.9882 15.3621 15.8077 15.797 15.8077 16.3067C15.8077 16.8164 15.9878 17.2516 16.348 17.6124C16.7083 17.9733 17.1433 18.1537 17.6528 18.1537ZM4.5 17.0577V15.5577H12.1155V17.0577H4.5ZM6.34625 11.0384C5.40925 11.0384 4.61733 10.7149 3.9705 10.0679C3.3235 9.42111 3 8.62919 3 7.69219C3 6.75536 3.3235 5.96344 3.9705 5.31644C4.61733 4.66961 5.40925 4.34619 6.34625 4.34619C7.28308 4.34619 8.075 4.66961 8.722 5.31644C9.36883 5.96344 9.69225 6.75536 9.69225 7.69219C9.69225 8.62919 9.36883 9.42111 8.722 10.0679C8.075 10.7149 7.28308 11.0384 6.34625 11.0384ZM6.34525 9.53844C6.85492 9.53844 7.29017 9.35827 7.651 8.99794C8.01183 8.63777 8.19225 8.20286 8.19225 7.69319C8.19225 7.18352 8.01217 6.74828 7.652 6.38744C7.29167 6.02661 6.85675 5.84619 6.34725 5.84619C5.83758 5.84619 5.40225 6.02628 5.04125 6.38644C4.68042 6.74678 4.5 7.18169 4.5 7.69119C4.5 8.20086 4.68017 8.63619 5.0405 8.99719C5.40067 9.35803 5.83558 9.53844 6.34525 9.53844ZM11.8845 8.44219V6.94219H19.5V8.44219H11.8845Z" fill="#717171"/>
</g>
</svg>
