<svg width="24" height="39" viewBox="0 0 24 39" fill="none" xmlns="http://www.w3.org/2000/svg">
<path fill-rule="evenodd" clip-rule="evenodd" d="M9.96085 31.6969C10.5693 31.5241 11.0543 31.2945 11.4277 31.0033C11.8094 30.7157 12.0888 30.3443 12.2773 29.8847C12.7224 28.7999 12.6371 27.6738 12.0242 26.5248C11.4141 25.368 10.4554 24.5382 9.15909 24.0306C7.92137 23.5464 6.74822 23.5242 5.62607 23.9504C4.50033 24.384 3.70375 25.1827 3.22795 26.3426C2.44292 28.2561 2.64057 30.2743 3.82768 32.3824C5.01119 34.4982 6.85063 36.04 9.35076 37.0185C11.7417 37.9542 14.0514 38.0628 16.306 37.354C18.5491 36.6495 20.0678 35.3292 20.8588 33.401C21.5757 31.6533 21.6103 29.9971 20.948 28.4437C20.2889 26.8833 18.3881 24.7055 15.266 21.9097C12.6758 19.6019 11.0591 17.6842 10.396 16.1568C9.7361 14.6221 9.73969 13.041 10.4103 11.4066C10.7056 10.6865 11.0256 10.054 11.5492 9.54688C11.8314 14.264 13.3408 15.9692 17.3333 19.3707C17.8665 19.8327 18.2786 20.1862 18.5575 20.4353C21.1437 22.6804 22.803 24.6849 23.5068 26.4466C24.2189 28.2113 24.1595 30.0941 23.3314 32.113C22.185 34.9077 20.1048 36.7865 17.0863 37.7382C14.0761 38.693 10.879 38.5085 7.51172 37.1902C4.6665 36.0766 2.57881 34.5691 1.25701 32.6704C-0.0643842 30.7717 -0.340937 28.8976 0.413008 27.0592C1.08048 25.4322 2.41184 24.2836 4.41186 23.6239C6.41149 22.9641 8.39398 23.0143 10.3721 23.7885C11.9967 24.4245 13.2229 25.3415 14.0302 26.5404C14.8463 27.7427 15.0424 28.8602 14.6128 29.9072C14.3658 30.5098 13.8892 31.0049 13.191 31.3964C12.4817 31.7919 11.8146 31.9417 11.1802 31.8682L9.96085 31.6969Z" fill="#737373"/>
<path d="M11.0313 1.24013C11.3046 0.497865 11.7338 0.0880036 12.3164 0.0140495C13.3389 -0.11323 14.4591 0.624366 15.6713 2.22372L15.7271 2.29768C16.4021 3.18824 16.9509 4.14809 17.3768 5.18656C17.816 6.25539 18.0674 7.26856 18.128 8.2253C18.1814 9.0493 18.1125 9.72579 17.9196 10.2489L17.8678 10.3894C17.704 10.8343 17.447 11.1733 17.0987 11.4022C16.713 11.6575 16.2049 11.6513 15.5757 11.3901C14.9014 11.1099 14.1853 10.4906 13.4306 9.54324C12.6846 8.71145 11.4433 7.07083 12.1279 5.21458L12.7205 6.50683C13.0118 7.1479 13.3433 7.7084 13.7163 8.19377C14.3838 9.06759 14.9935 9.52261 15.5498 9.56776C16.0618 9.6098 16.4424 9.29335 16.6898 8.6227C16.9465 7.92675 16.9261 7.07823 16.6257 6.07557C16.3276 5.07602 15.8793 4.18312 15.2812 3.39414L15.1995 3.28633C14.4451 2.29145 13.7203 1.90338 13.0249 2.12291C12.6591 2.22995 12.0088 3.14581 11.6011 4.39252L9.9402 9.1614L9.90234 9.11158C10.5252 6.29042 10.1096 3.74017 11.0313 1.24013Z" fill="#737373"/>
</svg>
