
<svg width="24" height="24" viewBox="0 0 24 24" fill="none" xmlns="http://www.w3.org/2000/svg">
<mask id="mask0_2150_21762" style="mask-type:alpha" maskUnits="userSpaceOnUse" x="0" y="0" width="24" height="24">
<rect width="24" height="24" fill="#D9D9D9"/>
</mask>
<g mask="url(#mask0_2150_21762)">
<path d="M4 16.7885V18.6923C4 18.7693 4.03208 18.8398 4.09625 18.9038C4.16025 18.968 4.23075 19 4.30775 19H19.6923C19.7693 19 19.8398 18.968 19.9038 18.9038C19.9679 18.8398 20 18.7693 20 18.6923V16.7885H4ZM4.30775 6.51929H7.075C6.99167 6.36929 6.9295 6.21095 6.8885 6.04429C6.8475 5.87762 6.827 5.70262 6.827 5.51929C6.827 4.82062 7.069 4.22929 7.553 3.74529C8.037 3.26129 8.62833 3.01929 9.327 3.01929C9.74617 3.01929 10.1339 3.1282 10.4902 3.34604C10.8466 3.56387 11.1575 3.83445 11.423 4.15779L11.9808 4.90404L12.5385 4.15779C12.7937 3.82195 13.1025 3.5482 13.465 3.33654C13.8277 3.12504 14.2182 3.01929 14.6367 3.01929C15.3341 3.01929 15.9247 3.26129 16.4085 3.74529C16.8925 4.22929 17.1345 4.82062 17.1345 5.51929C17.1345 5.70262 17.1156 5.87762 17.0778 6.04429C17.0399 6.21095 16.9762 6.36929 16.8865 6.51929H19.6923C20.1974 6.51929 20.625 6.69429 20.975 7.04429C21.325 7.39429 21.5 7.82187 21.5 8.32704V18.6923C21.5 19.1975 21.325 19.625 20.975 19.975C20.625 20.325 20.1974 20.5 19.6923 20.5H4.30775C3.80258 20.5 3.375 20.325 3.025 19.975C2.675 19.625 2.5 19.1975 2.5 18.6923V8.32704C2.5 7.82187 2.675 7.39429 3.025 7.04429C3.375 6.69429 3.80258 6.51929 4.30775 6.51929ZM4 14.2115H20V8.32704C20 8.25004 19.9679 8.17954 19.9038 8.11554C19.8398 8.05137 19.7693 8.01929 19.6923 8.01929H14.2268L16.2693 10.8115L15.073 11.673L11.9808 7.47704L8.8885 11.673L7.69225 10.8115L9.704 8.01929H4.30775C4.23075 8.01929 4.16025 8.05137 4.09625 8.11554C4.03208 8.17954 4 8.25004 4 8.32704V14.2115ZM9.327 6.51929C9.61033 6.51929 9.84783 6.42345 10.0395 6.23179C10.2312 6.04012 10.327 5.80262 10.327 5.51929C10.327 5.23595 10.2312 4.99845 10.0395 4.80679C9.84783 4.61512 9.61033 4.51929 9.327 4.51929C9.04367 4.51929 8.80617 4.61512 8.6145 4.80679C8.42283 4.99845 8.327 5.23595 8.327 5.51929C8.327 5.80262 8.42283 6.04012 8.6145 6.23179C8.80617 6.42345 9.04367 6.51929 9.327 6.51929ZM14.6345 6.51929C14.9178 6.51929 15.1553 6.42345 15.347 6.23179C15.5387 6.04012 15.6345 5.80262 15.6345 5.51929C15.6345 5.23595 15.5387 4.99845 15.347 4.80679C15.1553 4.61512 14.9178 4.51929 14.6345 4.51929C14.3512 4.51929 14.1137 4.61512 13.922 4.80679C13.7303 4.99845 13.6345 5.23595 13.6345 5.51929C13.6345 5.80262 13.7303 6.04012 13.922 6.23179C14.1137 6.42345 14.3512 6.51929 14.6345 6.51929Z" fill="#717171"/>
</g>
</svg>
