<svg width="20" height="15" viewBox="0 0 20 15" fill="none" xmlns="http://www.w3.org/2000/svg">
<g clip-path="url(#clip0_1841_831)">
<path d="M1.35685 15.0001H4.52284V7.27285L0 3.86377V13.6365C0 14.391 0.608322 15.0001 1.35685 15.0001Z" fill="#4285F4"/>
<path d="M15.3774 15.0001H18.5434C19.2943 15.0001 19.9003 14.3888 19.9003 13.6365V3.86377L15.3774 7.27285" fill="#34A853"/>
<path d="M15.3774 1.3636V7.27268L19.9003 3.8636V2.04542C19.9003 0.359053 17.9849 -0.60231 16.6439 0.409053" fill="#FBBC04"/>
<path d="M4.52295 7.27285V1.36377L9.95037 5.45467L15.3777 1.36377V7.27285L9.95037 11.3638" fill="#EA4335"/>
<path d="M0 2.04542V3.8636L4.52284 7.27268V1.3636L3.25645 0.409053C1.91316 -0.60231 0 0.359053 0 2.04542Z" fill="#C5221F"/>
</g>
<defs>
<clipPath id="clip0_1841_831">
<rect width="20" height="15" fill="white"/>
</clipPath>
</defs>
</svg>
