<svg width="13" height="12" viewBox="0 0 13 12" fill="none" xmlns="http://www.w3.org/2000/svg">
<path fill-rule="evenodd" clip-rule="evenodd" d="M12.6831 5.78375L12.1941 6.36877C12.151 6.41666 12.092 6.44723 12.0281 6.45477H12.0041C11.9439 6.45702 11.885 6.4375 11.8381 6.39978L6.36908 1.84076L0.902081 6.39978C0.847894 6.44131 0.78007 6.46093 0.712079 6.45477C0.647681 6.44725 0.588447 6.41584 0.546078 6.36676L0.05708 5.78375C0.0152968 5.73189 -0.00480447 5.6659 0.000973416 5.59955C0.0067513 5.5332 0.0379665 5.4716 0.0880858 5.42773L5.76808 0.694763C5.93946 0.560961 6.15066 0.488281 6.36808 0.488281C6.58551 0.488281 6.79671 0.560961 6.96809 0.694763L8.89708 2.30676V0.764771C8.89667 0.73148 8.90296 0.698425 8.91554 0.667603C8.92812 0.63678 8.94676 0.608822 8.97035 0.585327C8.99394 0.561832 9.022 0.543284 9.05287 0.530823C9.08374 0.518361 9.11679 0.512219 9.15008 0.512756H10.6671C10.7004 0.512219 10.7334 0.518361 10.7643 0.530823C10.7952 0.543284 10.8232 0.561832 10.8468 0.585327C10.8704 0.608822 10.8891 0.63678 10.9016 0.667603C10.9142 0.698425 10.9205 0.73148 10.9201 0.764771V3.98376L12.6511 5.42175C12.7024 5.4661 12.7345 5.52868 12.7404 5.59625C12.7464 5.66383 12.7258 5.73109 12.6831 5.78375Z" fill="#929292"/>
<path fill-rule="evenodd" clip-rule="evenodd" d="M10.9369 6.75671V10.5487C10.9361 10.6827 10.8826 10.8109 10.7878 10.9056C10.6931 11.0004 10.5649 11.054 10.4309 11.0548H7.39795V8.02087H5.37488V11.0548H2.33997C2.20618 11.0538 2.07815 11.0001 1.98364 10.9054C1.88913 10.8107 1.83575 10.6825 1.83496 10.5487V6.75671C1.83496 6.74071 1.8429 6.72389 1.8429 6.70789L6.38586 2.96277L10.929 6.70789C10.9355 6.72334 10.9382 6.73998 10.9369 6.75671Z" fill="#929292"/>
</svg>
