<svg width="19" height="19" viewBox="0 0 19 19" fill="none" xmlns="http://www.w3.org/2000/svg">
<g clip-path="url(#clip0_223_18386)">
<path d="M13.7808 0H5.11489C2.29449 0 0 2.29449 0 5.11489V13.7809C0 16.6012 2.29449 18.8957 5.11489 18.8957H13.7809C16.6012 18.8957 18.8957 16.6012 18.8957 13.7809V5.11489C18.8957 2.29449 16.6012 0 13.7808 0V0ZM17.7879 13.7809C17.7879 15.9904 15.9904 17.7879 13.7808 17.7879H5.11489C2.90531 17.7879 1.10774 15.9904 1.10774 13.7809V5.11489C1.10774 2.90531 2.90531 1.10774 5.11489 1.10774H13.7809C15.9904 1.10774 17.7879 2.90531 17.7879 5.11489V13.7809Z" fill="#737373"/>
<path d="M9.44838 4.28198C6.59944 4.28198 4.28174 6.59968 4.28174 9.44862C4.28174 12.2976 6.59944 14.6153 9.44838 14.6153C12.2973 14.6153 14.615 12.2976 14.615 9.44862C14.615 6.59968 12.2973 4.28198 9.44838 4.28198ZM9.44838 13.5075C7.2104 13.5075 5.38948 11.6867 5.38948 9.44862C5.38948 7.21064 7.2104 5.38973 9.44838 5.38973C11.6865 5.38973 13.5073 7.21064 13.5073 9.44862C13.5073 11.6867 11.6865 13.5075 9.44838 13.5075Z" fill="#737373"/>
<path d="M14.7376 2.44629C13.8957 2.44629 13.2109 3.1312 13.2109 3.97297C13.2109 4.81488 13.8957 5.49979 14.7376 5.49979C15.5795 5.49979 16.2644 4.81488 16.2644 3.97297C16.2644 3.13106 15.5795 2.44629 14.7376 2.44629ZM14.7376 4.39191C14.5067 4.39191 14.3187 4.20392 14.3187 3.97297C14.3187 3.74188 14.5067 3.55403 14.7376 3.55403C14.9687 3.55403 15.1567 3.74188 15.1567 3.97297C15.1567 4.20392 14.9687 4.39191 14.7376 4.39191Z" fill="#737373"/>
</g>
<defs>
<clipPath id="clip0_223_18386">
<rect width="18.8957" height="18.8957" fill="white"/>
</clipPath>
</defs>
</svg>
