<svg width="18" height="16" viewBox="0 0 18 16" fill="none" xmlns="http://www.w3.org/2000/svg">
<path d="M15.4685 2.20887C15.0854 1.82562 14.6306 1.5216 14.13 1.31418C13.6294 1.10676 13.0928 1 12.551 1C12.0091 1 11.4725 1.10676 10.972 1.31418C10.4714 1.5216 10.0165 1.82562 9.63347 2.20887L8.83847 3.00387L8.04347 2.20887C7.2697 1.4351 6.22024 1.0004 5.12597 1.0004C4.03169 1.0004 2.98224 1.4351 2.20847 2.20887C1.4347 2.98264 1 4.03209 1 5.12637C1 6.22064 1.4347 7.2701 2.20847 8.04387L3.00347 8.83887L8.83847 14.6739L14.6735 8.83887L15.4685 8.04387C15.8517 7.6608 16.1557 7.20598 16.3632 6.70539C16.5706 6.20479 16.6773 5.66823 16.6773 5.12637C16.6773 4.5845 16.5706 4.04795 16.3632 3.54735C16.1557 3.04676 15.8517 2.59194 15.4685 2.20887Z" stroke="#787C84" stroke-linecap="round" stroke-linejoin="round"/>
</svg>
