
<svg width="24" height="24" viewBox="0 0 24 24" fill="none" xmlns="http://www.w3.org/2000/svg">
<mask id="mask0_2164_34131" style="mask-type:alpha" maskUnits="userSpaceOnUse" x="4" y="2" width="20" height="20">
<rect x="4" y="2" width="20" height="20" fill="#D9D9D9"/>
</mask>
<g mask="url(#mask0_2164_34131)">
<path d="M14 20.3268L12.8963 19.3345C11.2386 17.8307 9.86775 16.5384 8.78375 15.4578C7.69975 14.3769 6.84075 13.415 6.20675 12.572C5.57275 11.7292 5.12983 10.9603 4.878 10.2653C4.626 9.57044 4.5 8.86536 4.5 8.15002C4.5 6.73086 4.9785 5.54269 5.9355 4.58552C6.89267 3.62852 8.08083 3.15002 9.5 3.15002C10.373 3.15002 11.198 3.35419 11.975 3.76252C12.752 4.17086 13.427 4.75644 14 5.51927C14.573 4.75644 15.248 4.17086 16.025 3.76252C16.802 3.35419 17.627 3.15002 18.5 3.15002C19.9192 3.15002 21.1073 3.62852 22.0645 4.58552C23.0215 5.54269 23.5 6.73086 23.5 8.15002C23.5 8.86536 23.374 9.57044 23.122 10.2653C22.8702 10.9603 22.4272 11.7292 21.7932 12.572C21.1592 13.415 20.3018 14.3769 19.221 15.4578C18.1403 16.5384 16.7679 17.8307 15.1038 19.3345L14 20.3268ZM14 18.3C15.6 16.8604 16.9167 15.6264 17.95 14.598C18.9833 13.5699 19.8 12.6766 20.4 11.9183C21 11.1599 21.4167 10.4865 21.65 9.89802C21.8833 9.30969 22 8.72702 22 8.15002C22 7.15002 21.6667 6.31669 21 5.65002C20.3333 4.98336 19.5 4.65002 18.5 4.65002C17.7103 4.65002 16.9805 4.87402 16.3105 5.32202C15.6407 5.77019 15.1102 6.39361 14.7192 7.19227H13.2808C12.8833 6.38711 12.3512 5.76211 11.6845 5.31727C11.0178 4.87244 10.2897 4.65002 9.5 4.65002C8.50633 4.65002 7.67458 4.98336 7.00475 5.65002C6.33492 6.31669 6 7.15002 6 8.15002C6 8.72702 6.11667 9.30969 6.35 9.89802C6.58333 10.4865 7 11.1599 7.6 11.9183C8.2 12.6766 9.01667 13.5683 10.05 14.5933C11.0833 15.6183 12.4 16.8539 14 18.3Z" fill="#1C1B1F" fill-opacity="0.6"/>
</g>
</svg>
