<svg width="25" height="24" viewBox="0 0 25 24" fill="none" xmlns="http://www.w3.org/2000/svg">
<mask id="mask0_2172_7967" style="mask-type:alpha" maskUnits="userSpaceOnUse" x="0" y="0" width="25" height="24">
<rect x="0.5" width="24" height="24" fill="#D9D9D9"/>
</mask>
<g mask="url(#mask0_2172_7967)">
<path d="M20.0423 20.577L13.7616 14.296C13.2616 14.7088 12.6866 15.0319 12.0366 15.2653C11.3866 15.4986 10.7141 15.6153 10.0193 15.6153C8.31014 15.6153 6.86364 15.0235 5.6798 13.84C4.49597 12.6565 3.90405 11.2103 3.90405 9.50152C3.90405 7.79285 4.4958 6.34618 5.6793 5.16152C6.8628 3.97702 8.30897 3.38477 10.0178 3.38477C11.7265 3.38477 13.1731 3.97668 14.3578 5.16051C15.5423 6.34435 16.1346 7.79085 16.1346 9.50002C16.1346 10.2142 16.0147 10.8963 15.7751 11.5463C15.5352 12.1963 15.2153 12.7616 14.8153 13.2423L21.0961 19.523L20.0423 20.577ZM10.0193 14.1155C11.3078 14.1155 12.3991 13.6683 13.2933 12.774C14.1876 11.8798 14.6348 10.7885 14.6348 9.50002C14.6348 8.21152 14.1876 7.12018 13.2933 6.22601C12.3991 5.33168 11.3078 4.88452 10.0193 4.88452C8.7308 4.88452 7.63947 5.33168 6.7453 6.22601C5.85097 7.12018 5.4038 8.21152 5.4038 9.50002C5.4038 10.7885 5.85097 11.8798 6.7453 12.774C7.63947 13.6683 8.7308 14.1155 10.0193 14.1155Z" fill="#1C1B1F"/>
</g>
</svg>
