
<svg width="24" height="24" viewBox="0 0 24 24" fill="none" xmlns="http://www.w3.org/2000/svg">
<mask id="mask0_2164_34127" style="mask-type:alpha" maskUnits="userSpaceOnUse" x="2" y="2" width="20" height="20">
<rect x="2" y="2" width="20" height="20" fill="#D9D9D9"/>
</mask>
<g mask="url(#mask0_2164_34127)">
<path d="M16.1667 20.3333C15.4723 20.3333 14.882 20.0902 14.3959 19.6041C13.9098 19.118 13.6667 18.5277 13.6667 17.8333C13.6667 17.75 13.6876 17.5555 13.7292 17.25L7.87508 13.8333C7.65286 14.0416 7.39591 14.2048 7.10425 14.3229C6.81258 14.4409 6.50008 14.5 6.16675 14.5C5.4723 14.5 4.88203 14.2569 4.39591 13.7708C3.9098 13.2847 3.66675 12.6944 3.66675 12C3.66675 11.3055 3.9098 10.7152 4.39591 10.2291C4.88203 9.74301 5.4723 9.49996 6.16675 9.49996C6.50008 9.49996 6.81258 9.55899 7.10425 9.67704C7.39591 9.7951 7.65286 9.95829 7.87508 10.1666L13.7292 6.74996C13.7015 6.65274 13.6841 6.55899 13.6772 6.46871C13.6702 6.37843 13.6667 6.27774 13.6667 6.16663C13.6667 5.47218 13.9098 4.8819 14.3959 4.39579C14.882 3.90968 15.4723 3.66663 16.1667 3.66663C16.8612 3.66663 17.4515 3.90968 17.9376 4.39579C18.4237 4.8819 18.6667 5.47218 18.6667 6.16663C18.6667 6.86107 18.4237 7.45135 17.9376 7.93746C17.4515 8.42357 16.8612 8.66663 16.1667 8.66663C15.8334 8.66663 15.5209 8.6076 15.2292 8.48954C14.9376 8.37149 14.6806 8.20829 14.4584 7.99996L8.60425 11.4166C8.63203 11.5138 8.64939 11.6076 8.65633 11.6979C8.66328 11.7882 8.66675 11.8888 8.66675 12C8.66675 12.1111 8.66328 12.2118 8.65633 12.302C8.64939 12.3923 8.63203 12.4861 8.60425 12.5833L14.4584 16C14.6806 15.7916 14.9376 15.6284 15.2292 15.5104C15.5209 15.3923 15.8334 15.3333 16.1667 15.3333C16.8612 15.3333 17.4515 15.5763 17.9376 16.0625C18.4237 16.5486 18.6667 17.1388 18.6667 17.8333C18.6667 18.5277 18.4237 19.118 17.9376 19.6041C17.4515 20.0902 16.8612 20.3333 16.1667 20.3333ZM16.1667 18.6666C16.4029 18.6666 16.6008 18.5868 16.7605 18.427C16.9202 18.2673 17.0001 18.0694 17.0001 17.8333C17.0001 17.5972 16.9202 17.3993 16.7605 17.2395C16.6008 17.0798 16.4029 17 16.1667 17C15.9306 17 15.7327 17.0798 15.573 17.2395C15.4133 17.3993 15.3334 17.5972 15.3334 17.8333C15.3334 18.0694 15.4133 18.2673 15.573 18.427C15.7327 18.5868 15.9306 18.6666 16.1667 18.6666ZM6.16675 12.8333C6.40286 12.8333 6.60078 12.7534 6.7605 12.5937C6.92022 12.434 7.00008 12.2361 7.00008 12C7.00008 11.7638 6.92022 11.5659 6.7605 11.4062C6.60078 11.2465 6.40286 11.1666 6.16675 11.1666C5.93064 11.1666 5.73272 11.2465 5.573 11.4062C5.41328 11.5659 5.33341 11.7638 5.33341 12C5.33341 12.2361 5.41328 12.434 5.573 12.5937C5.73272 12.7534 5.93064 12.8333 6.16675 12.8333ZM16.1667 6.99996C16.4029 6.99996 16.6008 6.9201 16.7605 6.76038C16.9202 6.60065 17.0001 6.40274 17.0001 6.16663C17.0001 5.93051 16.9202 5.7326 16.7605 5.57288C16.6008 5.41315 16.4029 5.33329 16.1667 5.33329C15.9306 5.33329 15.7327 5.41315 15.573 5.57288C15.4133 5.7326 15.3334 5.93051 15.3334 6.16663C15.3334 6.40274 15.4133 6.60065 15.573 6.76038C15.7327 6.9201 15.9306 6.99996 16.1667 6.99996Z" fill="#1C1B1F" fill-opacity="0.6"/>
</g>
</svg>
