
<svg width="25" height="24" viewBox="0 0 25 24" fill="none" xmlns="http://www.w3.org/2000/svg">
<mask id="mask0_2172_7979" style="mask-type:alpha" maskUnits="userSpaceOnUse" x="0" y="0" width="25" height="24">
<rect x="0.5" width="24" height="24" fill="#D9D9D9"/>
</mask>
<g mask="url(#mask0_2172_7979)">
<path d="M12.4905 20.5V19H19.1923C19.2692 19 19.3398 18.9679 19.4038 18.9038C19.4679 18.8398 19.5 18.7692 19.5 18.6923V5.30775C19.5 5.23075 19.4679 5.16025 19.4038 5.09625C19.3398 5.03208 19.2692 5 19.1923 5H12.4905V3.5H19.1923C19.6974 3.5 20.125 3.675 20.475 4.025C20.825 4.375 21 4.80258 21 5.30775V18.6923C21 19.1974 20.825 19.625 20.475 19.975C20.125 20.325 19.6974 20.5 19.1923 20.5H12.4905ZM11.1348 16.2692L10.0963 15.1845L12.5308 12.75H4V11.25H12.5308L10.0963 8.8155L11.1348 7.73075L15.4038 12L11.1348 16.2692Z" fill="#1C1B1F"/>
</g>
</svg>
