<svg width="22" height="22" viewBox="0 0 22 22" fill="none" xmlns="http://www.w3.org/2000/svg">
<g clip-path="url(#clip0_223_18390)">
<path d="M21.8189 2.89718C21.6034 2.63416 21.2461 2.53662 20.9283 2.65367L0.747789 9.96071C0.344621 10.1075 0.0616317 10.4636 0.00909569 10.8899C-0.0429368 11.3142 0.143709 11.7259 0.493837 11.9628L3.37845 13.9359C3.65791 14.1271 4.01727 14.1476 4.31655 13.9893L10.5739 10.6832L5.69708 14.3317C5.46814 14.5031 5.33135 14.7764 5.33135 15.0626V18.4423C5.33135 18.7909 5.52219 19.1103 5.82935 19.2761C6.13701 19.4419 6.50862 19.4254 6.80084 19.2324L8.99242 17.7758L11.1476 19.2482C11.3364 19.3778 11.5613 19.4461 11.7882 19.4461C11.8649 19.4461 11.942 19.4382 12.0179 19.4224C12.3205 19.3592 12.5882 19.1718 12.7525 18.9085L21.8829 3.82349C22.0606 3.53305 22.0351 3.16139 21.8189 2.89718ZM11.7401 18.0889L9.50821 16.5641C9.35295 16.4578 9.17403 16.4047 8.99527 16.4047C8.82038 16.4047 8.64531 16.4556 8.49207 16.5575L6.62108 17.801V15.2533L15.2325 8.81072C15.617 8.52298 15.7138 7.99928 15.4575 7.59263C15.2011 7.18599 14.6876 7.04859 14.2631 7.27293L3.91707 12.7395L1.47725 11.0707L20.0607 4.34198L11.7401 18.0889Z" fill="#737373"/>
</g>
<defs>
<clipPath id="clip0_223_18390">
<rect width="22" height="22" fill="white"/>
</clipPath>
</defs>
</svg>
