<svg width="25" height="24" viewBox="0 0 25 24" fill="none" xmlns="http://www.w3.org/2000/svg">
<mask id="mask0_2172_7975" style="mask-type:alpha" maskUnits="userSpaceOnUse" x="0" y="0" width="25" height="24">
<rect x="0.5" width="24" height="24" fill="#D9D9D9"/>
</mask>
<g mask="url(#mask0_2172_7975)">
<path d="M12.5 20.3268L11.3963 19.3345C9.73858 17.8307 8.36775 16.5384 7.28375 15.4578C6.19975 14.3769 5.34075 13.415 4.70675 12.572C4.07275 11.7292 3.62983 10.9603 3.378 10.2653C3.126 9.57044 3 8.86536 3 8.15002C3 6.73086 3.4785 5.54269 4.4355 4.58552C5.39267 3.62852 6.58083 3.15002 8 3.15002C8.873 3.15002 9.698 3.35419 10.475 3.76252C11.252 4.17086 11.927 4.75644 12.5 5.51927C13.073 4.75644 13.748 4.17086 14.525 3.76252C15.302 3.35419 16.127 3.15002 17 3.15002C18.4192 3.15002 19.6073 3.62852 20.5645 4.58552C21.5215 5.54269 22 6.73086 22 8.15002C22 8.86536 21.874 9.57044 21.622 10.2653C21.3702 10.9603 20.9272 11.7292 20.2932 12.572C19.6592 13.415 18.8018 14.3769 17.721 15.4578C16.6403 16.5384 15.2679 17.8307 13.6038 19.3345L12.5 20.3268ZM12.5 18.3C14.1 16.8604 15.4167 15.6264 16.45 14.598C17.4833 13.5699 18.3 12.6766 18.9 11.9183C19.5 11.1599 19.9167 10.4865 20.15 9.89802C20.3833 9.30969 20.5 8.72702 20.5 8.15002C20.5 7.15002 20.1667 6.31669 19.5 5.65002C18.8333 4.98336 18 4.65002 17 4.65002C16.2103 4.65002 15.4805 4.87402 14.8105 5.32202C14.1407 5.77019 13.6102 6.39361 13.2192 7.19227H11.7808C11.3833 6.38711 10.8512 5.76211 10.1845 5.31727C9.51783 4.87244 8.78967 4.65002 8 4.65002C7.00633 4.65002 6.17458 4.98336 5.50475 5.65002C4.83492 6.31669 4.5 7.15002 4.5 8.15002C4.5 8.72702 4.61667 9.30969 4.85 9.89802C5.08333 10.4865 5.5 11.1599 6.1 11.9183C6.7 12.6766 7.51667 13.5683 8.55 14.5933C9.58333 15.6183 10.9 16.8539 12.5 18.3Z" fill="#1C1B1F"/>
</g>
</svg>
